# xmcd
#
# Track frame offsets: 
#        150
#        13988
#        26564
#        42436
#        63134
#        78187
#        95874
#        115939
#        133711
#        152303
#        166542
#        184071
#        196980
#        209472
#        224535
#
# Disc length: 3199 seconds
#
# Revision: 1
# Processed by: cddbd v1.5.1PL2 Copyright (c) Steve Scherf et al.
# Submitted via: ExactAudioCopy v0.95b4
#
DISCID=c90c7d0f
DTITLE=P.W. Krise - Prophet am Strassenrand
DYEAR=2004
DGENRE=Blues
TTITLE0=es regnet in meinem kopf
TTITLE1=prophet am strassenrand
TTITLE2=schneegestöber
TTITLE3=engel
TTITLE4=es gibt hier nichts zu gewinnen
TTITLE5=willi kurz
TTITLE6=irgendein dämon
TTITLE7=schwarzer fliegerlärm
TTITLE8=knulp
TTITLE9=nur dich
TTITLE10=übers meer
TTITLE11=und in dem schneegebirge
TTITLE12=wenn ich mir was wünschen dürfte
TTITLE13=das ende von willi kurz
TTITLE14=abschied
EXTD=
EXTT0=
EXTT1=
EXTT2=
EXTT3=
EXTT4=
EXTT5=
EXTT6=
EXTT7=
EXTT8=
EXTT9=
EXTT10=
EXTT11=
EXTT12=
EXTT13=
EXTT14=
PLAYORDER=
